<?xml version="1.0" standalone="no"?>
<!DOCTYPE svg PUBLIC "-//W3C//DTD SVG 20010904//EN" "http://www.w3.org/TR/2001/REC-SVG-20010904/DTD/svg10.dtd">
<svg version="1.0" xmlns="http://www.w3.org/2000/svg"
  width="189.000000pt" height="189.000000pt" viewBox="0 0 189.000000 189.000000"
  preserveAspectRatio="xMidYMid meet">

  <g transform="translate(0.000000,189.000000) scale(0.100000,-0.100000)"
    fill="#000000" stroke="none">
    <path
      d="M701 1859 c-281 -73 -534 -307 -634 -586 -62 -172 -73 -394 -28 -566
86 -328 352 -595 675 -677 113 -29 349 -28 462 1 331 85 590 352 676 696 31
121 30 332 0 445 -93 344 -346 603 -670 688 -107 28 -373 28 -481 -1z m624
-331 c-2 -7 -36 -166 -75 -353 -38 -187 -74 -349 -79 -360 -8 -18 -588 -465
-604 -465 -4 0 -5 10 -2 23 2 12 37 175 76 362 39 187 74 345 77 352 10 17
585 452 599 452 7 1 10 -5 8 -11z" />
    <path
      d="M895 1051 c-84 -38 -94 -141 -20 -199 16 -13 42 -22 62 -22 134 0
170 175 47 226 -41 17 -41 17 -89 -5z" />
  </g>
</svg>